0
SECTION
2
HEADER
9
$INSUNITS
70
4
9
$ACADVER
1
AC1014
9
$HANDSEED
5
FFFF
0
ENDSEC
0
SECTION
2
TABLES
0
TABLE
2
VPORT
5
8
100
AcDbSymbolTable
0
ENDTAB
0
TABLE
2
LTYPE
5
5
100
AcDbSymbolTable
0
LTYPE
5
14
100
AcDbSymbolTableRecord
100
AcDbLinetypeTableRecord
2
BYBLOCK
70
0
0
LTYPE
5
15
100
AcDbSymbolTableRecord
100
AcDbLinetypeTableRecord
2
BYLAYER
70
0
0
ENDTAB
0
TABLE
2
LAYER
5
2
100
AcDbSymbolTable
70
2
0
LAYER
5
50
100
AcDbSymbolTableRecord
100
AcDbLayerTableRecord
2
0
70
0
6
CONTINUOUS
0
ENDTAB
0
TABLE
2
STYLE
5
3
100
AcDbSymbolTable
70
1
0
STYLE
5
11
100
AcDbSymbolTableRecord
100
AcDbTextStyleTableRecord
2
STANDARD
70
0
0
ENDTAB
0
TABLE
2
VIEW
5
6
100
AcDbSymbolTable
70
0
0
ENDTAB
0
TABLE
2
UCS
5
7
100
AcDbSymbolTable
70
0
0
ENDTAB
0
TABLE
2
APPID
5
9
100
AcDbSymbolTable
70
2
0
APPID
5
12
100
AcDbSymbolTableRecord
100
AcDbRegAppTableRecord
2
ACAD
70
0
0
ENDTAB
0
TABLE
2
DIMSTYLE
5
A
100
AcDbSymbolTable
70
1
0
ENDTAB
0
TABLE
2
BLOCK_RECORD
5
1
100
AcDbSymbolTable
70
1
0
BLOCK_RECORD
5
1F
100
AcDbSymbolTableRecord
100
AcDbBlockTableRecord
2
*MODEL_SPACE
0
BLOCK_RECORD
5
1B
100
AcDbSymbolTableRecord
100
AcDbBlockTableRecord
2
*PAPER_SPACE
0
ENDTAB
0
ENDSEC
0
SECTION
2
BLOCKS
0
BLOCK
5
20
100
AcDbEntity
100
AcDbBlockBegin
2
*MODEL_SPACE
0
ENDBLK
5
21
100
AcDbEntity
100
AcDbBlockEnd
0
BLOCK
5
1C
100
AcDbEntity
100
AcDbBlockBegin
2
*PAPER_SPACE
0
ENDBLK
5
1D
100
AcDbEntity
100
AcDbBlockEnd
0
ENDSEC
0
SECTION
2
ENTITIES
0
LINE
5
100
100
AcDbEntity
8
0
100
AcDbLine
10
23.851367358979285
20
15.858151643507325
30
0
11
26.000000387430191
21
47.000000700354576
31
0
0
LINE
5
101
100
AcDbEntity
8
0
100
AcDbLine
10
48.784065335269005
20
46.438831046216066
30
0
11
26.000000387430191
21
47.000000700354576
31
0
0
LINE
5
102
100
AcDbEntity
8
0
100
AcDbLine
10
48.784065335269005
20
44.691290413519354
30
0
11
48.784065335269005
21
46.438831046216066
31
0
0
LINE
5
103
100
AcDbEntity
8
0
100
AcDbLine
10
50.619176511197459
20
45.011071175600527
30
0
11
48.784065335269005
21
44.691290413519354
31
0
0
LINE
5
104
100
AcDbEntity
8
0
100
AcDbLine
10
50.619176511197459
20
45.56506072986771
30
0
11
50.619176511197459
21
45.011071175600527
31
0
0
LINE
5
105
100
AcDbEntity
8
0
100
AcDbLine
10
50.907894830791385
20
46.247884258894707
30
0
11
50.972255324916873
21
45.878541646508339
31
0
0
LINE
5
106
100
AcDbEntity
8
0
100
AcDbLine
10
50.619176511197459
20
45.56506072986771
30
0
11
50.972255324916873
21
45.878541646508339
31
0
0
LINE
5
107
100
AcDbEntity
8
0
100
AcDbLine
10
50.907894830791385
20
46.247884258894707
30
0
11
53.15952890550642
21
46.247884258894707
31
0
0
LINE
5
108
100
AcDbEntity
8
0
100
AcDbLine
10
55.950286631913812
20
45.930752699075683
30
0
11
55.950286631913812
21
45.740473763184269
31
0
0
LINE
5
109
100
AcDbEntity
8
0
100
AcDbLine
10
55.950286631913812
20
45.740473763184269
30
0
11
56.996820779316579
21
45.740473763184269
31
0
0
LINE
5
110
100
AcDbEntity
8
0
100
AcDbLine
10
56.996820779316579
20
45.740473763184269
30
0
11
57.250526027171787
21
46.247884258894707
31
0
0
LINE
5
111
100
AcDbEntity
8
0
100
AcDbLine
10
83.626819014784559
20
45.831589625028897
30
0
11
83.983556451246827
21
30.119456593342374
31
0
0
LINE
5
112
100
AcDbEntity
8
0
100
AcDbLine
10
83.626819014784559
20
45.831589625028897
30
0
11
73.485995071026963
21
45.831589625028897
31
0
0
LINE
5
113
100
AcDbEntity
8
0
100
AcDbLine
10
73.485995071026963
20
45.831589625028897
30
0
11
57.250526027171787
21
46.247884258894707
31
0
0
LINE
5
114
100
AcDbEntity
8
0
100
AcDbLine
10
53.15952890550642
20
46.247884258894707
30
0
11
55.950286631913812
21
45.930752699075683
31
0
0
LINE
5
115
100
AcDbEntity
8
0
100
AcDbLine
10
83.983556451246827
20
30.119456593342374
30
0
11
83.805187733015714
21
20.987198898589629
31
0
0
LINE
5
116
100
AcDbEntity
8
0
100
AcDbLine
10
82.886220947674602
20
21.162987313058679
30
0
11
83.805187733015714
21
20.987198898589629
31
0
0
LINE
5
117
100
AcDbEntity
8
0
100
AcDbLine
10
82.115962700910842
20
20.469754890971302
30
0
11
82.886220947674602
21
21.162987313058679
31
0
0
LINE
5
118
100
AcDbEntity
8
0
100
AcDbLine
10
82.115962700910842
20
19.93057411823667
30
0
11
82.115962700910842
21
20.469754890971302
31
0
0
LINE
5
119
100
AcDbEntity
8
0
100
AcDbLine
10
82.501091824292715
20
19.545444994854794
30
0
11
82.115962700910842
21
19.93057411823667
31
0
0
LINE
5
120
100
AcDbEntity
8
0
100
AcDbLine
10
82.115962700910842
20
18.582622186400101
30
0
11
82.501091824292715
21
19.545444994854794
31
0
0
LINE
5
121
100
AcDbEntity
8
0
100
AcDbLine
10
82.501091824292715
20
17.696825202621781
30
0
11
82.115962700910842
21
18.582622186400101
31
0
0
LINE
5
122
100
AcDbEntity
8
0
100
AcDbLine
10
81.502412166419717
20
17.048745850172281
30
0
11
82.501091824292715
21
17.696825202621781
31
0
0
ARC
5
123
100
AcDbEntity
8
0
100
AcDbCircle
10
81.681214028256846
20
17.361893624382613
30
0
40
0.36059899374417259
210
0
220
0
230
1
100
AcDbArc
50
158.44290058401407
51
240.27439433910115
0
ARC
5
124
100
AcDbEntity
8
0
100
AcDbCircle
10
81.023206130521217
20
17.095705568732956
30
0
40
0.51287336283507245
210
0
220
-0
230
1
100
AcDbArc
50
51.018617960869314
51
112.03909277310052
0
ARC
5
125
100
AcDbEntity
8
0
100
AcDbCircle
10
80.62266017142403
20
17.588727249097662
30
0
40
0.20884086170116234
210
0
220
0
230
1
100
AcDbArc
50
-4.841195164622988
51
176.08571330714096
0
ARC
5
126
100
AcDbEntity
8
0
100
AcDbCircle
10
80.774910202399951
20
16.56621038810917
30
0
40
1.0976947152370722
210
0
220
0
230
1
100
AcDbArc
50
109.1783654913788
51
141.97724820406683
0
ARC
5
127
100
AcDbEntity
8
0
100
AcDbCircle
10
79.674560643741614
20
17.496857961445073
30
0
40
0.19548788833132894
210
0
220
0
230
1
100
AcDbArc
50
-11.168109473284751
51
191.16810947328472
0
LINE
5
128
100
AcDbEntity
8
0
100
AcDbLine
10
79.866346600061547
20
17.458994239458285
30
0
11
79.91018339007752
21
17.242362166861575
31
0
0
LINE
5
129
100
AcDbEntity
8
0
100
AcDbLine
10
79.482774687421681
20
17.458994239458285
30
0
11
79.482774687421681
21
17.242362166861575
31
0
0
LINE
5
130
100
AcDbEntity
8
0
100
AcDbLine
10
79.318386724861753
20
17.242362166861575
30
0
11
78.912896417213915
21
17.692345849776402
31
0
0
LINE
5
131
100
AcDbEntity
8
0
100
AcDbLine
10
78.682753269629998
20
17.467354008318988
30
0
11
78.912896417213915
21
17.692345849776402
31
0
0
LINE
5
132
100
AcDbEntity
8
0
100
AcDbLine
10
78.682753269629998
20
17.467354008318988
30
0
11
78.441650924542088
21
17.467354008318988
31
0
0
LINE
5
133
100
AcDbEntity
8
0
100
AcDbLine
10
78.441650924542088
20
17.467354008318988
30
0
11
78.238905770718176
21
17.692345849776402
31
0
0
LINE
5
134
100
AcDbEntity
8
0
100
AcDbLine
10
78.238905770718176
20
17.692345849776402
30
0
11
78.112874999422218
21
18.086184555268332
31
0
0
LINE
5
135
100
AcDbEntity
8
0
100
AcDbLine
10
78.112874999422218
20
18.086184555268332
30
0
11
77.751221481790353
21
18.086184555268332
31
0
0
LINE
5
136
100
AcDbEntity
8
0
100
AcDbLine
10
77.751221481790353
20
18.086184555268332
30
0
11
77.214220804094552
21
16.880672829828793
31
0
0
ARC
5
137
100
AcDbEntity
8
0
100
AcDbCircle
10
77.093669631550611
20
16.465219615359132
30
0
40
0.43258982722077333
210
0
220
-0
230
1
100
AcDbArc
50
73.818969510543894
51
188.87658492884424
0
LINE
5
138
100
AcDbEntity
8
0
100
AcDbLine
10
76.666260928894758
20
16.39846813965298
30
0
11
76.436117781310855
21
16.39846813965298
31
0
0
LINE
5
139
100
AcDbEntity
8
0
100
AcDbLine
10
76.436117781310855
20
16.39846813965298
30
0
11
76.436117781310855
21
16.661488879748877
31
0
0
LINE
5
140
100
AcDbEntity
8
0
100
AcDbLine
10
76.436117781310855
20
16.661488879748877
30
0
11
76.3155666087669
21
16.661488879748877
31
0
0
LINE
5
141
100
AcDbEntity
8
0
100
AcDbLine
10
76.3155666087669
20
16.661488879748877
30
0
11
76.3155666087669
21
17.056019989892729
31
0
0
ARC
5
142
100
AcDbEntity
8
0
100
AcDbCircle
10
76.167617442462955
20
17.056019989892722
30
0
40
0.14794916630393118
210
0
220
-0
230
1
100
AcDbArc
50
0
51
180
0
LINE
5
143
100
AcDbEntity
8
0
100
AcDbLine
10
76.019668276159024
20
17.056019989892729
30
0
11
76.019668276159024
21
16.858754434820803
31
0
0
LINE
5
144
100
AcDbEntity
8
0
100
AcDbLine
10
76.019668276159024
20
16.858754434820803
30
0
11
75.789525128575107
21
16.650529682244883
31
0
0
LINE
5
145
100
AcDbEntity
8
0
100
AcDbLine
10
75.789525128575107
20
16.650529682244883
30
0
11
75.636096363519172
21
16.650529682244883
31
0
0
ARC
5
146
100
AcDbEntity
8
0
100
AcDbCircle
10
75.284640573265008
20
16.472450188198341
30
0
40
0.39399680037159635
210
0
220
-0
230
1
100
AcDbArc
50
26.870923545394714
51
107.70025174827249
0
LINE
5
147
100
AcDbEntity
8
0
100
AcDbLine
10
75.164850870847346
20
16.847795237316809
30
0
11
75.164850870847346
21
17.176571162436684
31
0
0
LINE
5
148
100
AcDbEntity
8
0
100
AcDbLine
10
75.164850870847346
20
17.176571162436684
30
0
11
74.989503710783424
21
17.176571162436684
31
0
0
LINE
5
149
100
AcDbEntity
8
0
100
AcDbLine
10
74.989503710783424
20
17.176571162436684
30
0
11
74.638809390655553
21
16.835888986120668
31
0
0
LINE
5
150
100
AcDbEntity
8
0
100
AcDbLine
10
74.638809390655553
20
16.835888986120668
30
0
11
74.20044149049572
21
17.099856779908713
31
0
0
LINE
5
151
100
AcDbEntity
8
0
100
AcDbLine
10
74.20044149049572
20
17.099856779908713
30
0
11
74.057971922943779
21
17.340959124996619
31
0
0
LINE
5
152
100
AcDbEntity
8
0
100
AcDbLine
10
74.057971922943779
20
17.340959124996619
30
0
11
73.915502355391837
21
18.820450788036052
31
0
0
LWPOLYLINE
5
153
100
AcDbEntity
8
0
100
AcDbPolyline
90
7
70
1
43
0.0
10
77.718343889278373
20
17.46151029754057
10
77.718343889278373
20
17.735490235140468
10
77.976838004318282
20
17.691653445124484
10
77.976838004318282
20
17.116295576164706
10
77.871772654334308
20
17.001224002372751
10
77.619711111742419
20
17.231367149956661
10
77.619711111742419
20
17.46151029754057
0
LINE
5
154
100
AcDbEntity
8
0
100
AcDbLine
10
73.915502355391837
20
18.820450788036052
30
0
11
73.740155195327901
21
19.204022700675903
31
0
0
LINE
5
155
100
AcDbEntity
8
0
100
AcDbLine
10
73.71589124630988
20
19.665037732018288
30
0
11
73.740155195327901
21
19.204022700675903
31
0
0
ARC
5
156
100
AcDbEntity
8
0
100
AcDbCircle
10
73.533637480438585
20
19.708502486243248
30
0
40
0.18736493811304633
210
0
220
0
230
1
100
AcDbArc
50
-13.413619106605797
51
203.58030764757092
0
LINE
5
157
100
AcDbEntity
8
0
100
AcDbLine
10
73.36191746332895
20
19.633550129655994
30
0
11
73.575367423591075
21
18.703786992467659
31
0
0
ARC
5
158
100
AcDbEntity
8
0
100
AcDbCircle
10
72.551166386130049
20
18.468656493093825
30
0
40
1.0508444779684394
210
0
220
0
230
1
100
AcDbArc
50
-41.79025125662664
51
12.929610978280245
0
ARC
5
159
100
AcDbEntity
8
0
100
AcDbCircle
10
72.733274047859311
20
17.050857169802928
30
0
40
0.93621177430534164
210
0
220
0
230
1
100
AcDbArc
50
-65.168297470166721
51
50.031508593442986
0
ARC
5
160
100
AcDbEntity
8
0
100
AcDbCircle
10
72.635682010849962
20
17.261759139220327
30
0
40
1.1685990510477979
210
0
220
0
230
1
100
AcDbArc
50
209.04735773682339
51
294.83170252983285
0
ARC
5
161
100
AcDbEntity
8
0
100
AcDbCircle
10
71.522557234050595
20
16.400048413930953
30
0
40
0.30821723957653557
210
0
220
-0
230
1
100
AcDbArc
50
72.727726891297252
51
190.53935178184855
0
LINE
5
162
100
AcDbEntity
8
0
100
AcDbLine
10
71.219539769408897
20
16.343672152133013
30
0
11
71.022274214336946
21
16.464223324676954
31
0
0
ARC
5
163
100
AcDbEntity
8
0
100
AcDbCircle
10
70.429632074541246
20
16.45902272138639
30
0
40
0.59266495774273609
210
0
220
-0
230
1
100
AcDbArc
50
0.50277385169696187
51
189.43552370049829
0
LINE
5
164
100
AcDbEntity
8
0
100
AcDbLine
10
69.844985453511072
20
16.361862644087758
30
0
11
69.915395266433364
21
15.938181844485158
31
0
0
ARC
5
165
100
AcDbEntity
8
0
100
AcDbCircle
10
69.827905469537313
20
15.748706500980749
30
0
40
0.2086992342032567
210
0
220
0
230
1
100
AcDbArc
50
-142.05108950916633
51
65.214978819522528
0
LINE
5
166
100
AcDbEntity
8
0
100
AcDbLine
10
69.663333723841461
20
15.62036511686928
30
0
11
69.531823353793513
21
15.619021900656673
31
0
0
LINE
5
167
100
AcDbEntity
8
0
100
AcDbLine
10
69.531823353793513
20
15.619021900656673
30
0
11
69.529909231094933
21
15.806428054666135
31
0
0
LINE
5
168
100
AcDbEntity
8
0
100
AcDbLine
10
69.529909231094933
20
15.806428054666135
30
0
11
69.24688421868963
21
15.938181844485158
31
0
0
LINE
5
169
100
AcDbEntity
8
0
100
AcDbLine
10
69.24688421868963
20
15.938181844485158
30
0
11
69.244642329053988
21
16.157678700480957
31
0
0
LINE
5
170
100
AcDbEntity
8
0
100
AcDbLine
10
69.244642329053988
20
16.157678700480957
30
0
11
69.028391240303534
21
16.155469962354086
31
0
0
LINE
5
171
100
AcDbEntity
8
0
100
AcDbLine
10
69.028391240303534
20
16.155469962354086
30
0
11
68.927239286387618
21
15.938181844485158
31
0
0
LINE
5
172
100
AcDbEntity
8
0
100
AcDbLine
10
68.927239286387618
20
15.938181844485158
30
0
11
68.842005061835067
21
15.977860076495979
31
0
0
LINE
5
173
100
AcDbEntity
8
0
100
AcDbLine
10
68.842005061835067
20
15.977860076495979
30
0
11
68.795738598412399
21
16.147374744349719
31
0
0
LINE
5
174
100
AcDbEntity
8
0
100
AcDbLine
10
68.795738598412399
20
16.147374744349719
30
0
11
68.477864561299313
21
16.147374744349719
31
0
0
LINE
5
175
100
AcDbEntity
8
0
100
AcDbLine
10
68.477864561299313
20
16.147374744349719
30
0
11
67.84042962580213
21
15.425585742821962
31
0
0
LINE
5
176
100
AcDbEntity
8
0
100
AcDbLine
10
67.84042962580213
20
15.425585742821962
30
0
11
67.020986818185321
21
15.383127566261505
31
0
0
LINE
5
177
100
AcDbEntity
8
0
100
AcDbLine
10
67.020986818185321
20
15.383127566261505
30
0
11
65.742995703715579
21
15.21329486001968
31
0
0
LINE
5
178
100
AcDbEntity
8
0
100
AcDbLine
10
65.742995703715579
20
15.21329486001968
30
0
11
65.682046316866888
21
15.671938996056047
31
0
0
LINE
5
179
100
AcDbEntity
8
0
100
AcDbLine
10
65.682046316866888
20
15.671938996056047
30
0
11
65.051618476669248
21
16.290882282935652
31
0
0
LINE
5
180
100
AcDbEntity
8
0
100
AcDbLine
10
65.051618476669248
20
16.290882282935652
30
0
11
65.051618476669248
21
17.023253642803912
31
0
0
ARC
5
181
100
AcDbEntity
8
0
100
AcDbCircle
10
64.476786666683012
20
17.394596867525848
30
0
40
0.6843445041197721
210
-0
220
0
230
1
100
AcDbArc
50
-32.862591947943336
51
47.610124670603398
0
LINE
5
182
100
AcDbEntity
8
0
100
AcDbLine
10
64.938152491337547
20
17.900036256730704
30
0
11
64.277986758498557
21
18.168228585696546
31
0
0
LINE
5
183
100
AcDbEntity
8
0
100
AcDbLine
10
64.277986758498557
20
18.168228585696546
30
0
11
64.071684966986368
21
18.508626541691655
31
0
0
LINE
5
184
100
AcDbEntity
8
0
100
AcDbLine
10
64.071684966986368
20
18.508626541691655
30
0
11
64.071684966986368
21
19.045011199623339
31
0
0
LINE
5
185
100
AcDbEntity
8
0
100
AcDbLine
10
64.071684966986368
20
19.045011199623339
30
0
11
63.909144161552518
21
18.776818870657497
31
0
0
LINE
5
186
100
AcDbEntity
8
0
100
AcDbLine
10
63.909144161552518
20
18.776818870657497
30
0
11
63.800191027910145
21
18.508626541691655
31
0
0
LINE
5
187
100
AcDbEntity
8
0
100
AcDbLine
10
63.800191027910145
20
18.508626541691655
30
0
11
63.556379819759371
21
18.91091503514042
31
0
0
LINE
5
188
100
AcDbEntity
8
0
100
AcDbLine
10
63.556379819759371
20
18.91091503514042
30
0
11
63.462321737811948
21
18.853910136990461
31
0
0
LINE
5
189
100
AcDbEntity
8
0
100
AcDbLine
10
63.462321737811948
20
18.853910136990461
30
0
11
63.462321737811948
21
18.483512848590745
31
0
0
LINE
5
190
100
AcDbEntity
8
0
100
AcDbLine
10
63.462321737811948
20
18.483512848590745
30
0
11
63.551301096065004
21
18.444519415076762
31
0
0
LINE
5
191
100
AcDbEntity
8
0
100
AcDbLine
10
63.551301096065004
20
18.444519415076762
30
0
11
63.551301096065004
21
18.226156187398466
31
0
0
LINE
5
192
100
AcDbEntity
8
0
100
AcDbLine
10
63.551301096065004
20
18.226156187398466
30
0
11
63.637086649795762
21
18.226156187398466
31
0
0
LINE
5
193
100
AcDbEntity
8
0
100
AcDbLine
10
63.637086649795762
20
18.226156187398466
30
0
11
63.637086649795762
21
17.897120493610153
31
0
0
LINE
5
194
100
AcDbEntity
8
0
100
AcDbLine
10
63.637086649795762
20
17.897120493610153
30
0
11
63.801009097983339
21
17.648515399889831
31
0
0
LINE
5
195
100
AcDbEntity
8
0
100
AcDbLine
10
63.801009097983339
20
17.648515399889831
30
0
11
64.25218130510541
21
17.772817946749988
31
0
0
ARC
5
196
100
AcDbEntity
8
0
100
AcDbCircle
10
63.670201212369449
20
16.86610730618311
30
0
40
1.0774158965126439
210
0
220
0
230
1
100
AcDbArc
50
-21.048156909494118
51
57.305271310796542
0
LINE
5
197
100
AcDbEntity
8
0
100
AcDbLine
10
64.675730724036328
20
16.479150699797941
30
0
11
64.675730724036328
21
15.981940512357296
31
0
0
LINE
5
198
100
AcDbEntity
8
0
100
AcDbLine
10
64.675730724036328
20
15.981940512357296
30
0
11
64.509993994889442
21
15.981940512357296
31
0
0
ARC
5
199
100
AcDbEntity
8
0
100
AcDbCircle
10
64.407367663762614
20
15.788580995019267
30
0
40
0.21890652522423798
210
0
220
-0
230
1
100
AcDbArc
50
62.042695146149924
51
297.9573048538503
0
LINE
5
200
100
AcDbEntity
8
0
100
AcDbLine
10
64.509993994889442
20
15.595221477681239
30
0
11
64.721768704354901
21
15.595221477681239
31
0
0
ARC
5
201
100
AcDbEntity
8
0
100
AcDbCircle
10
64.797049142592584
20
15.461711334757361
30
0
40
0.15327133667065995
210
0
220
0
230
1
100
AcDbArc
50
-119.41671988690392
51
119.41671988690359
0
ARC
5
202
100
AcDbEntity
8
0
100
AcDbCircle
10
64.364186512323116
20
15.114744752377465
30
0
40
0.19678098011976033
210
0
220
-0
230
1
100
AcDbArc
50
82.375562124517288
51
283.0770598632962
0
LINE
5
203
100
AcDbEntity
8
0
100
AcDbLine
10
64.390295246061143
20
15.309785999706055
30
0
11
64.721768704354901
21
15.328201191833484
31
0
0
LINE
5
204
100
AcDbEntity
8
0
100
AcDbLine
10
64.408710438188578
20
14.923066965029994
30
0
11
64.556031975208015
21
15.105384835655949
31
0
0
LINE
5
205
100
AcDbEntity
8
0
100
AcDbLine
10
64.556031975208015
20
15.105384835655949
30
0
11
64.95032047926324
21
15.105384835655949
31
0
0
ARC
5
206
100
AcDbEntity
8
0
100
AcDbCircle
10
64.95032047926324
20
14.981999314119967
30
0
40
0.12338552153598137
210
0
220
0
230
1
100
AcDbArc
50
-90
51
90
0
LINE
5
207
100
AcDbEntity
8
0
100
AcDbLine
10
64.95032047926324
20
14.858613792583986
30
0
11
64.21535092085054
21
14.591593506736231
31
0
0
LINE
5
208
100
AcDbEntity
8
0
100
AcDbLine
10
64.21535092085054
20
14.591593506736231
30
0
11
63.727348329473614
21
14.591593506736231
31
0
0
LINE
5
209
100
AcDbEntity
8
0
100
AcDbLine
10
63.727348329473614
20
14.591593506736231
30
0
11
63.556564312861084
21
14.529546315240855
31
0
0
LINE
5
210
100
AcDbEntity
8
0
100
AcDbLine
10
63.556564312861084
20
14.529546315240855
30
0
11
63.303798910542696
21
14.72510364966011
31
0
0
LINE
5
211
100
AcDbEntity
8
0
100
AcDbLine
10
63.303798910542696
20
14.72510364966011
30
0
11
63.125565976446303
21
15.215687278733547
31
0
0
LINE
5
212
100
AcDbEntity
8
0
100
AcDbLine
10
63.125565976446303
20
15.215687278733547
30
0
11
62.41986968842599
21
15.215687278733547
31
0
0
LINE
5
213
100
AcDbEntity
8
0
100
AcDbLine
10
62.41986968842599
20
15.215687278733547
30
0
11
62.260092537520826
21
15.157638969088211
31
0
0
LINE
5
214
100
AcDbEntity
8
0
100
AcDbLine
10
62.260092537520826
20
15.157638969088211
30
0
11
62.41986968842599
21
15.215687278733547
31
0
0
ARC
5
215
100
AcDbEntity
8
0
100
AcDbCircle
10
61.857520640208492
20
14.041543061647348
30
0
40
1.3018644685788516
210
0
220
-0
230
1
100
AcDbArc
50
64.408200062976306
51
143.68296966138661
0
ARC
5
216
100
AcDbEntity
8
0
100
AcDbCircle
10
60.435632736695268
20
13.926259435613664
30
0
40
0.96156998077330957
210
0
220
-0
230
1
100
AcDbArc
50
67.181623644880077
51
156.13035443196486
0
LINE
5
217
100
AcDbEntity
8
0
100
AcDbLine
10
59.556307312610421
20
14.315365624824761
30
0
11
59.132757893679504
21
14.315365624824761
31
0
0
LINE
5
218
100
AcDbEntity
8
0
100
AcDbLine
10
59.132757893679504
20
14.315365624824761
30
0
11
58.985436356660045
21
14.91385936896628
31
0
0
LINE
5
219
100
AcDbEntity
8
0
100
AcDbLine
10
58.985436356660045
20
14.91385936896628
30
0
11
58.488226169219402
21
14.44427196971678
31
0
0
LINE
5
220
100
AcDbEntity
8
0
100
AcDbLine
10
58.488226169219402
20
14.44427196971678
30
0
11
58.488226169219402
21
14.112798511423017
31
0
0
LINE
5
221
100
AcDbEntity
8
0
100
AcDbLine
10
58.488226169219402
20
14.112798511423017
30
0
11
58.17408707387888
21
14.035471964877654
31
0
0
LINE
5
222
100
AcDbEntity
8
0
100
AcDbLine
10
58.17408707387888
20
14.035471964877654
30
0
11
57.097879163598336
21
14.91385936896628
31
0
0
LINE
5
223
100
AcDbEntity
8
0
100
AcDbLine
10
57.097879163598336
20
14.91385936896628
30
0
11
55.873268887124155
21
14.91385936896628
31
0
0
ARC
5
224
100
AcDbEntity
8
0
100
AcDbCircle
10
55.551003024894108
20
14.587318551420941
30
0
40
0.45878556154488542
210
0
220
-0
230
1
100
AcDbArc
50
45.377513611241802
51
134.6224863887582
0
ARC
5
225
100
AcDbEntity
8
0
100
AcDbCircle
10
54.689593503119539
20
15.460154934198611
30
0
40
0.76753809691739017
210
0
220
0
230
1
100
AcDbArc
50
222.51332124291133
51
314.62248638875917
0
ARC
5
226
100
AcDbEntity
8
0
100
AcDbCircle
10
53.907447127520868
20
14.87547933970122
30
0
40
0.22622119798754908
210
0
220
0
230
1
100
AcDbArc
50
-126.169442586385
51
16.96349195891257
0
ARC
5
227
100
AcDbEntity
8
0
100
AcDbCircle
10
53.533573500440156
20
14.540941486948594
30
0
40
0.2843462681024555
210
0
220
0
230
1
100
AcDbArc
50
-112.65506178506521
51
32.29380146748926
0
ARC
5
228
100
AcDbEntity
8
0
100
AcDbCircle
10
53.193027804914969
20
14.194040966518795
30
0
40
0.24598733155870683
210
0
220
0
230
1
100
AcDbArc
50
-132.09674989629514
51
20.08966819279566
0
ARC
5
229
100
AcDbEntity
8
0
100
AcDbCircle
10
52.812789513673209
20
14.122878038932164
30
0
40
0.24242460368702107
210
0
220
0
230
1
100
AcDbArc
50
193.38447885725944
51
332.65340632908072
0
LINE
5
230
100
AcDbEntity
8
0
100
AcDbLine
10
52.576949496313944
20
14.066760531104441
30
0
11
52.783324938746112
21
14.223289664187607
31
0
0
LINE
5
231
100
AcDbEntity
8
0
100
AcDbLine
10
52.783324938746112
20
14.223289664187607
30
0
11
52.783324938746112
21
14.425856777589352
31
0
0
ARC
5
232
100
AcDbEntity
8
0
100
AcDbCircle
10
52.483353019277182
20
14.807416593189753
30
0
40
0.48535661667570257
210
0
220
0
230
1
100
AcDbArc
50
228.37891348211704
51
308.17346349328267
0
LINE
5
233
100
AcDbEntity
8
0
100
AcDbLine
10
52.160978485082268
20
14.444586460684899
30
0
11
51.764621666246803
21
14.264023909882074
31
0
0
LINE
5
234
100
AcDbEntity
8
0
100
AcDbLine
10
51.764621666246803
20
14.264023909882074
30
0
11
51.631502705625266
21
14.556236262465914
31
0
0
LINE
5
235
100
AcDbEntity
8
0
100
AcDbLine
10
51.631502705625266
20
14.556236262465914
30
0
11
51.438728281870979
21
14.556236262465914
31
0
0
LINE
5
236
100
AcDbEntity
8
0
100
AcDbLine
10
51.438728281870979
20
14.556236262465914
30
0
11
51.403496564641159
21
14.410130086173993
31
0
0
LINE
5
237
100
AcDbEntity
8
0
100
AcDbLine
10
51.403496564641159
20
14.410130086173993
30
0
11
51.196510225915972
21
14.410130086173993
31
0
0
LINE
5
238
100
AcDbEntity
8
0
100
AcDbLine
10
51.196510225915972
20
14.410130086173993
30
0
11
51.108430932841422
21
14.805711562290544
31
0
0
LINE
5
239
100
AcDbEntity
8
0
100
AcDbLine
10
51.108430932841422
20
14.805711562290544
30
0
11
50.701850328835306
21
14.715183227823916
31
0
0
LINE
5
240
100
AcDbEntity
8
0
100
AcDbLine
10
50.701850328835306
20
14.715183227823916
30
0
11
50.073499239215479
21
14.715183227823916
31
0
0
LINE
5
241
100
AcDbEntity
8
0
100
AcDbLine
10
50.073499239215479
20
14.715183227823916
30
0
11
49.377672823926552
21
14.338891308995441
31
0
0
LINE
5
242
100
AcDbEntity
8
0
100
AcDbLine
10
49.377672823926552
20
14.338891308995441
30
0
11
49.267573707583367
21
14.048229641849431
31
0
0
LINE
5
243
100
AcDbEntity
8
0
100
AcDbLine
10
49.267573707583367
20
14.048229641849431
30
0
11
48.906448605977715
21
14.048229641849431
31
0
0
LINE
5
244
100
AcDbEntity
8
0
100
AcDbLine
10
48.906448605977715
20
14.048229641849431
30
0
11
48.906448605977715
21
14.193560475422435
31
0
0
LINE
5
245
100
AcDbEntity
8
0
100
AcDbLine
10
48.906448605977715
20
14.193560475422435
30
0
11
49.183898379162542
21
14.44018249603117
31
0
0
LINE
5
246
100
AcDbEntity
8
0
100
AcDbLine
10
49.183898379162542
20
14.44018249603117
30
0
11
49.183898379162542
21
14.616341082180266
31
0
0
LINE
5
247
100
AcDbEntity
8
0
100
AcDbLine
10
49.183898379162542
20
14.616341082180266
30
0
11
48.562939362986974
21
14.616341082180266
31
0
0
LINE
5
248
100
AcDbEntity
8
0
100
AcDbLine
10
48.562939362986974
20
14.616341082180266
30
0
11
48.369164918222971
21
14.048229641849431
31
0
0
LINE
5
249
100
AcDbEntity
8
0
100
AcDbLine
10
48.369164918222971
20
14.048229641849431
30
0
11
48.206218226035055
21
14.048229641849431
31
0
0
LINE
5
250
100
AcDbEntity
8
0
100
AcDbLine
10
48.206218226035055
20
14.048229641849431
30
0
11
48.052079463154591
21
14.418162672762534
31
0
0
LINE
5
251
100
AcDbEntity
8
0
100
AcDbLine
10
48.052079463154591
20
14.418162672762534
30
0
11
47.488371987477493
21
13.93372656085252
31
0
0
LINE
5
252
100
AcDbEntity
8
0
100
AcDbLine
10
47.488371987477493
20
13.93372656085252
30
0
11
47.087611203988295
21
13.93372656085252
31
0
0
LINE
5
253
100
AcDbEntity
8
0
100
AcDbLine
10
47.087611203988295
20
13.93372656085252
30
0
11
47.039167592797291
21
13.832435373816789
31
0
0
LINE
5
254
100
AcDbEntity
8
0
100
AcDbLine
10
47.039167592797291
20
13.832435373816789
30
0
11
46.356553071469541
21
13.832435373816789
31
0
0
LINE
5
255
100
AcDbEntity
8
0
100
AcDbLine
10
46.356553071469541
20
13.832435373816789
30
0
11
45.951388323326618
21
14.026209818580799
31
0
0
LINE
5
256
100
AcDbEntity
8
0
100
AcDbLine
10
45.951388323326618
20
14.026209818580799
30
0
11
45.951388323326618
21
14.211176334037345
31
0
0
ARC
5
257
100
AcDbEntity
8
0
100
AcDbCircle
10
45.902188807754754
20
14.55248359470122
30
0
40
0.3448350888676831
210
0
220
0
230
1
100
AcDbArc
50
-81.797304908185367
51
81.797304908185296
0
LINE
5
258
100
AcDbEntity
8
0
100
AcDbLine
10
45.951388323326618
20
14.893790855365094
30
0
11
45.951388323326618
21
15.716369623328308
31
0
0
LINE
5
259
100
AcDbEntity
8
0
100
AcDbLine
10
45.951388323326618
20
15.716369623328308
30
0
11
46.367899741920169
21
15.977165135711378
31
0
0
LINE
5
260
100
AcDbEntity
8
0
100
AcDbLine
10
46.367899741920169
20
15.977165135711378
30
0
11
46.520030457476963
21
16.390091363651237
31
0
0
LINE
5
261
100
AcDbEntity
8
0
100
AcDbLine
10
46.520030457476963
20
16.390091363651237
30
0
11
45.552913765723076
21
15.977165135711378
31
0
0
LINE
5
262
100
AcDbEntity
8
0
100
AcDbLine
10
45.552913765723076
20
15.977165135711378
30
0
11
45.382230523878881
21
15.51388205070568
31
0
0
LINE
5
263
100
AcDbEntity
8
0
100
AcDbLine
10
45.382230523878881
20
15.51388205070568
30
0
11
44.884787499025229
21
15.30149064683558
31
0
0
LINE
5
264
100
AcDbEntity
8
0
100
AcDbLine
10
44.884787499025229
20
15.30149064683558
30
0
11
44.884787499025229
21
14.98831548459224
31
0
0
LINE
5
265
100
AcDbEntity
8
0
100
AcDbLine
10
44.884787499025229
20
14.98831548459224
30
0
11
45.188600736363405
21
14.98831548459224
31
0
0
LINE
5
266
100
AcDbEntity
8
0
100
AcDbLine
10
45.188600736363405
20
14.98831548459224
30
0
11
45.382230523878881
21
14.98831548459224
31
0
0
LINE
5
267
100
AcDbEntity
8
0
100
AcDbLine
10
45.382230523878881
20
14.98831548459224
30
0
11
45.285415630121136
21
14.803585329987566
31
0
0
LINE
5
268
100
AcDbEntity
8
0
100
AcDbLine
10
45.285415630121136
20
14.803585329987566
30
0
11
44.75966074889125
21
14.379792622365077
31
0
0
ARC
5
269
100
AcDbEntity
8
0
100
AcDbCircle
10
45.128890718360928
20
12.639978031240044
30
0
40
1.7785627854664461
210
0
220
0
230
1
100
AcDbArc
50
101.9817541176191
51
155.76040267457111
0
ARC
5
270
100
AcDbEntity
8
0
100
AcDbCircle
10
43.40534227414836
20
12.901658089624419
30
0
40
0.47944473687226741
210
0
220
-0
230
1
100
AcDbArc
50
77.742377072809433
51
179.99977971978095
0
ARC
5
271
100
AcDbEntity
8
0
100
AcDbCircle
10
41.780125144256495
20
12.854762765377995
30
0
40
0.76421395183376306
210
0
220
0
230
1
100
AcDbArc
50
-74.160809855269761
51
3.5181159636468657
0
LINE
5
272
100
AcDbEntity
8
0
100
AcDbLine
10
42.542898893635162
20
12.901658089624419
30
0
11
42.925897537279631
21
12.901659932908245
31
0
0
ARC
5
273
100
AcDbEntity
8
0
100
AcDbCircle
10
41.694973900900109
20
11.870399865030725
30
0
40
0.38517938990442335
210
0
220
-0
230
1
100
AcDbArc
50
40.306805423890331
51
147.72154596693238
0
ARC
5
274
100
AcDbEntity
8
0
100
AcDbCircle
10
40.881976007504768
20
11.965411683269831
30
0
40
0.49975488444931743
210
0
220
-0
230
1
100
AcDbArc
50
12.796155808476428
51
190.95960278788527
0
ARC
5
275
100
AcDbEntity
8
0
100
AcDbCircle
10
40.571603492781122
20
10.47865193724239
30
0
40
1.4033740390824059
210
0
220
0
230
1
100
AcDbArc
50
97.380205043532641
51
164.73291961556859
0
LINE
5
276
100
AcDbEntity
8
0
100
AcDbLine
10
39.217756110751026
20
10.848186725511013
30
0
11
38.956960598367949
21
10.848186725511013
31
0
0
LINE
5
277
100
AcDbEntity
8
0
100
AcDbLine
10
38.956960598367949
20
10.848186725511013
30
0
11
38.956960598367949
21
10.391794578840642
31
0
0
ARC
5
278
100
AcDbEntity
8
0
100
AcDbCircle
10
39.065625395194232
20
10.190764704712027
30
0
40
0.22851925162109177
210
0
220
0
230
1
100
AcDbArc
50
-118.39301942138367
51
118.39301942138388
0
LINE
5
279
100
AcDbEntity
8
0
100
AcDbLine
10
38.956960598367949
20
9.9897348305834104
30
0
11
37.892045589470413
21
9.7941381962961103
31
0
0
LINE
5
280
100
AcDbEntity
8
0
100
AcDbLine
10
37.892045589470413
20
9.7941381962961103
30
0
11
37.533451759943695
21
9.9897348305834104
31
0
0
ARC
5
281
100
AcDbEntity
8
0
100
AcDbCircle
10
37.634213662455338
20
10.174464985188084
30
0
40
0.21042383662036218
210
0
220
0
230
1
100
AcDbArc
50
-118.61045966596576
51
118.61045966596576
0
ARC
5
282
100
AcDbEntity
8
0
100
AcDbCircle
10
37.394314016762699
20
10.614281208950484
30
0
40
0.29056533560602205
210
0
220
0
230
1
100
AcDbArc
50
139.04920965747036
51
298.61044015246989
0
LINE
5
283
100
AcDbEntity
8
0
100
AcDbLine
10
37.174857930416977
20
10.804720806780503
30
0
11
36.772798182159747
21
10.804720806780503
31
0
0
ARC
5
284
100
AcDbEntity
8
0
100
AcDbCircle
10
36.565450587285412
20
10.773005848637018
30
0
40
0.20975906099668776
210
0
220
-0
230
1
100
AcDbArc
50
8.6963056316423515
51
261.30369436835832
0
LINE
5
285
100
AcDbEntity
8
0
100
AcDbLine
10
36.53373562914193
20
10.565658253762688
30
0
11
36.53373562914193
21
10.432094010697039
31
0
0
ARC
5
286
100
AcDbEntity
8
0
100
AcDbCircle
10
37.948839288759395
20
8.0239681030446306
30
0
40
2.7931324269660869
210
0
220
0
230
1
100
AcDbArc
50
120.4400668338173
51
144.87223789347249
0
ARC
5
287
100
AcDbEntity
8
0
100
AcDbCircle
10
35.599218376435928
20
9.7682258216683042
30
0
40
0.15179967637338529
210
0
220
0
230
1
100
AcDbArc
50
106.63880567042636
51
295.4362163804185
0
LINE
5
288
100
AcDbEntity
8
0
100
AcDbLine
10
35.555752457705417
20
9.9136694728050152
30
0
11
35.914346287232142
21
10.326595700744877
31
0
0
LINE
5
289
100
AcDbEntity
8
0
100
AcDbLine
10
35.914346287232142
20
10.326595700744877
30
0
11
35.914346287232142
21
10.522192335032177
31
0
0
ARC
5
290
100
AcDbEntity
8
0
100
AcDbCircle
10
35.839996689403634
20
9.9273955524041284
30
0
40
0.59942562117575349
210
0
220
-0
230
1
100
AcDbArc
50
82.874983651097992
51
179.23464389082727
0
LINE
5
291
100
AcDbEntity
8
0
100
AcDbLine
10
34.849431278334606
20
9.652873960421946
30
0
11
35.24062454690921
21
9.935402432170271
31
0
0
ARC
5
292
100
AcDbEntity
8
0
100
AcDbCircle
10
34.789665640080152
20
9.3932595871348159
30
0
40
0.26640486919955447
210
0
220
-0
230
1
100
AcDbArc
50
77.035847530355625
51
177.91651159236719
0
ARC
5
293
100
AcDbEntity
8
0
100
AcDbCircle
10
34.244131174340318
20
8.4679731834698373
30
0
40
0.52571148031455639
210
0
220
-0
230
1
100
AcDbArc
50
83.229656640718815
51
163.12736667806598
0
ARC
5
294
100
AcDbEntity
8
0
100
AcDbCircle
10
33.985294815623782
20
9.4225224850177405
30
0
40
0.53849806931485666
210
0
220
0
230
1
100
AcDbArc
50
306.56641495245901
51
357.91650384542078
0
LINE
5
295
100
AcDbEntity
8
0
100
AcDbLine
10
32.132811357677639
20
8.5988254312070431
30
0
11
32.839132537048449
21
9.163882374703693
31
0
0
LINE
5
296
100
AcDbEntity
8
0
100
AcDbLine
10
32.839132537048449
20
9.163882374703693
30
0
11
33.741050350706558
21
8.6205583905722971
31
0
0
ARC
5
297
100
AcDbEntity
8
0
100
AcDbCircle
10
31.964380922596902
20
8.0602336237116354
30
0
40
0.56431369517552388
210
0
220
-0
230
1
100
AcDbArc
50
72.634298162805877
51
159.05447694631442
0
ARC
5
298
100
AcDbEntity
8
0
100
AcDbCircle
10
31.079596149582734
20
8.0082689307438208
30
0
40
0.43858186716921871
210
0
220
-0
230
1
100
AcDbArc
50
35.341269150674698
51
173.19541371940829
0
LINE
5
299
100
AcDbEntity
8
0
100
AcDbLine
10
30.644103641157617
20
8.0602336237116354
30
0
11
29.959515421152059
21
8.3054304797760885
31
0
0
ARC
5
300
100
AcDbEntity
8
0
100
AcDbCircle
10
30.038311073823913
20
8.1261335650127293
30
0
40
0.1958472326167601
210
0
220
0
230
1
100
AcDbArc
50
113.72405825453841
51
246.27594174546172
0
ARC
5
301
100
AcDbEntity
8
0
100
AcDbCircle
10
30.046447258613082
20
7.8490383331057174
30
0
40
0.13084974283688947
210
0
220
0
230
1
100
AcDbArc
50
-131.63353933657021
51
131.63353933656995
0
ARC
5
302
100
AcDbEntity
8
0
100
AcDbCircle
10
29.807384705595268
20
7.2865084779073506
30
0
40
0.48899811561858214
210
0
220
-0
230
1
100
AcDbArc
50
71.874046502035554
51
180.296099583668
0
LINE
5
303
100
AcDbEntity
8
0
100
AcDbLine
10
29.318393119877012
20
7.2839813896090675
30
0
11
29.133662965272336
21
7.2839813896090675
31
0
0
LINE
5
304
100
AcDbEntity
8
0
100
AcDbLine
10
29.133662965272336
20
7.2839813896090675
30
0
11
29.133662965272336
21
7.681689056430276
31
0
0
LINE
5
305
100
AcDbEntity
8
0
100
AcDbLine
10
29.133662965272336
20
7.681689056430276
30
0
11
28.97066577003292
21
7.4828352230196726
31
0
0
LINE
5
306
100
AcDbEntity
8
0
100
AcDbLine
10
28.97066577003292
20
7.4828352230196726
30
0
11
28.829401534158755
21
7.681689056430276
31
0
0
LINE
5
307
100
AcDbEntity
8
0
100
AcDbLine
10
28.829401534158755
20
7.681689056430276
30
0
11
28.612071940506198
21
7.681689056430276
31
0
0
LINE
5
308
100
AcDbEntity
8
0
100
AcDbLine
10
28.612071940506198
20
7.681689056430276
30
0
11
28.612071940506198
21
7.3383137880222069
31
0
0
LINE
5
309
100
AcDbEntity
8
0
100
AcDbLine
10
28.612071940506198
20
7.3383137880222069
30
0
11
28.829401534158755
21
7.1601723179769996
31
0
0
LINE
5
310
100
AcDbEntity
8
0
100
AcDbLine
10
28.829401534158755
20
7.1601723179769996
30
0
11
28.829401534158755
21
6.9036546007170916
31
0
0
LINE
5
311
100
AcDbEntity
8
0
100
AcDbLine
10
28.829401534158755
20
6.9036546007170916
30
0
11
28.362142907805755
21
7.0319134593470451
31
0
0
LINE
5
312
100
AcDbEntity
8
0
100
AcDbLine
10
28.362142907805755
20
7.0319134593470451
30
0
11
28.228242978783491
21
6.5441039031726858
31
0
0
LINE
5
313
100
AcDbEntity
8
0
100
AcDbLine
10
28.228242978783491
20
6.5441039031726858
30
0
11
27.851418362722246
21
6.5441039031726858
31
0
0
LINE
5
314
100
AcDbEntity
8
0
100
AcDbLine
10
27.851418362722246
20
6.5441039031726858
30
0
11
27.851418362722246
21
6.0886686245199995
31
0
0
LINE
5
315
100
AcDbEntity
8
0
100
AcDbLine
10
23.851367358979285
20
15.858151643507325
30
0
11
26.160723068422381
21
12.55907205858853
31
0
0
LINE
5
316
100
AcDbEntity
8
0
100
AcDbLine
10
26.160723068422381
20
12.55907205858853
30
0
11
17.858039446376807
21
7.9953452994508956
31
0
0
LINE
5
317
100
AcDbEntity
8
0
100
AcDbLine
10
17.858039446376807
20
7.9953452994508956
30
0
11
20.133813920671404
21
4.7442389076013844
31
0
0
LINE
5
318
100
AcDbEntity
8
0
100
AcDbLine
10
20.133813920671404
20
4.7442389076013844
30
0
11
20.290448771221826
21
4.2810285509449582
31
0
0
LINE
5
319
100
AcDbEntity
8
0
100
AcDbLine
10
20.290448771221826
20
4.2810285509449582
30
0
11
20.133813920671404
21
3.8101819225053166
31
0
0
LINE
5
320
100
AcDbEntity
8
0
100
AcDbLine
10
20.133813920671404
20
3.8101819225053166
30
0
11
20.133813920671404
21
3.1726118444273999
31
0
0
LINE
5
321
100
AcDbEntity
8
0
100
AcDbLine
10
20.133813920671404
20
3.1726118444273999
30
0
11
20.287268559003763
21
3.1215626430746939
31
0
0
LINE
5
322
100
AcDbEntity
8
0
100
AcDbLine
10
20.287268559003763
20
3.1215626430746939
30
0
11
20.287268559003763
21
3.4913968834663582
31
0
0
LINE
5
323
100
AcDbEntity
8
0
100
AcDbLine
10
20.287268559003763
20
3.4913968834663582
30
0
11
20.664294311218491
21
3.8101819225053166
31
0
0
LINE
5
324
100
AcDbEntity
8
0
100
AcDbLine
10
20.664294311218491
20
3.8101819225053166
30
0
11
20.664294311218491
21
4.1047678750186236
31
0
0
LINE
5
325
100
AcDbEntity
8
0
100
AcDbLine
10
20.664294311218491
20
4.1047678750186236
30
0
11
21.136056204749419
21
3.866044989135506
31
0
0
LINE
5
326
100
AcDbEntity
8
0
100
AcDbLine
10
21.136056204749419
20
3.866044989135506
30
0
11
21.348421369750376
21
4.0456052367251374
31
0
0
LINE
5
327
100
AcDbEntity
8
0
100
AcDbLine
10
21.348421369750376
20
4.0456052367251374
30
0
11
21.348421369750376
21
4.3378068826664302
31
0
0
LINE
5
328
100
AcDbEntity
8
0
100
AcDbLine
10
21.348421369750376
20
4.3378068826664302
30
0
11
21.948850792399082
21
4.3378068826664302
31
0
0
LINE
5
329
100
AcDbEntity
8
0
100
AcDbLine
10
21.948850792399082
20
4.3378068826664302
30
0
11
22.269125146058752
21
4.9707300101367311
31
0
0
LINE
5
330
100
AcDbEntity
8
0
100
AcDbLine
10
22.269125146058752
20
4.9707300101367311
30
0
11
22.377627149787198
21
4.9158253817440229
31
0
0
LINE
5
331
100
AcDbEntity
8
0
100
AcDbLine
10
22.377627149787198
20
4.9158253817440229
30
0
11
22.539974128871563
21
4.3946456650195538
31
0
0
ARC
5
332
100
AcDbEntity
8
0
100
AcDbCircle
10
22.646337086589639
20
4.6792462141981463
30
0
40
0.30382651524726145
210
0
220
0
230
1
100
AcDbArc
50
-110.4920817708233
51
25.400145119877376
0
LINE
5
333
100
AcDbEntity
8
0
100
AcDbLine
10
22.92079397063749
20
4.8095687761973549
30
0
11
23.193620125932487
21
4.747046115608919
31
0
0
LINE
5
334
100
AcDbEntity
8
0
100
AcDbLine
10
23.193620125932487
20
4.747046115608919
30
0
11
23.193620125932487
21
4.3548585173723673
31
0
0
LINE
5
335
100
AcDbEntity
8
0
100
AcDbLine
10
23.193620125932487
20
4.3548585173723673
30
0
11
22.738909867107498
21
4.1616066573717472
31
0
0
LINE
5
336
100
AcDbEntity
8
0
100
AcDbLine
10
22.738909867107498
20
4.1616066573717472
30
0
11
22.738909867107498
21
3.8717288673708183
31
0
0
LINE
5
337
100
AcDbEntity
8
0
100
AcDbLine
10
22.738909867107498
20
3.8717288673708183
30
0
11
23.193620125932487
21
3.8717288673708183
31
0
0
LINE
5
338
100
AcDbEntity
8
0
100
AcDbLine
10
23.193620125932487
20
3.8717288673708183
30
0
11
23.793142569096641
21
4.6096555557171337
31
0
0
ARC
5
339
100
AcDbEntity
8
0
100
AcDbCircle
10
23.945470535316367
20
4.6755088965453702
30
0
40
0.16595322169478005
210
0
220
-0
230
1
100
AcDbArc
50
78.436853898291105
51
203.37944976894181
0
ARC
5
340
100
AcDbEntity
8
0
100
AcDbCircle
10
23.780565481280838
20
5.1699628691891997
30
0
40
0.38653370198829962
210
0
220
0
230
1
100
AcDbArc
50
-59.157161050750233
51
26.735433983411454
0
LINE
5
341
100
AcDbEntity
8
0
100
AcDbLine
10
24.12577615652371
20
5.3438533303167146
30
0
11
24.438389459465888
21
5.3438533303167146
31
0
0
LINE
5
342
100
AcDbEntity
8
0
100
AcDbLine
10
24.438389459465888
20
5.3438533303167146
30
0
11
24.603221928289948
21
4.7186267244323572
31
0
0
LINE
5
343
100
AcDbEntity
8
0
100
AcDbLine
10
24.603221928289948
20
4.7186267244323572
30
0
11
24.978357891820558
21
4.7186267244323572
31
0
0
LINE
5
344
100
AcDbEntity
8
0
100
AcDbLine
10
24.978357891820558
20
4.7186267244323572
30
0
11
24.978357891820558
21
5.1051304444335965
31
0
0
LINE
5
345
100
AcDbEntity
8
0
100
AcDbLine
10
24.978357891820558
20
5.1051304444335965
30
0
11
24.876048083584941
21
5.1960724961985942
31
0
0
LINE
5
346
100
AcDbEntity
8
0
100
AcDbLine
10
24.876048083584941
20
5.1960724961985942
30
0
11
24.876048083584941
21
5.4404792603170247
31
0
0
LINE
5
347
100
AcDbEntity
8
0
100
AcDbLine
10
24.876048083584941
20
5.4404792603170247
30
0
11
25.461487541822109
21
5.4404792603170247
31
0
0
LINE
5
348
100
AcDbEntity
8
0
100
AcDbLine
10
25.461487541822109
20
5.4404792603170247
30
0
11
25.461487541822109
21
6.08275750090732
31
0
0
ARC
5
349
100
AcDbEntity
8
0
100
AcDbCircle
10
25.296170707722347
20
5.4351265297702032
30
0
40
0.66839773369811284
210
0
220
-0
230
1
100
AcDbArc
50
5.338846504599041
51
75.680249653168488
0
LINE
5
350
100
AcDbEntity
8
0
100
AcDbLine
10
25.961668826529596
20
5.4973180426701482
30
0
11
26.154920686530218
21
5.7758280762004528
31
0
0
LINE
5
351
100
AcDbEntity
8
0
100
AcDbLine
10
26.154920686530218
20
5.7758280762004528
30
0
11
26.257230494765839
21
5.4234276256110885
31
0
0
ARC
5
352
100
AcDbEntity
8
0
100
AcDbCircle
10
26.284212028799683
20
5.7921125320953406
30
0
40
0.36967088531303266
210
0
220
0
230
1
100
AcDbArc
50
-94.185625585445493
51
13.456547429430159
0
ARC
5
353
100
AcDbEntity
8
0
100
AcDbCircle
10
26.93706607187822
20
5.9483253600568418
30
0
40
0.30161210209520445
210
0
220
0
230
1
100
AcDbArc
50
97.153151648384807
51
193.45654742942997
0
LINE
5
354
100
AcDbEntity
8
0
100
AcDbLine
10
26.899508735356157
20
6.2475899697313855
30
0
11
26.93706607187822
21
5.9483253600568418
31
0
0
LINE
5
355
100
AcDbEntity
8
0
100
AcDbLine
10
26.93706607187822
20
5.9483253600568418
30
0
11
27.348535115945808
21
6.0979576648941141
31
0
0
LINE
5
356
100
AcDbEntity
8
0
100
AcDbLine
10
27.348535115945808
20
6.0979576648941141
30
0
11
27.411057776534243
21
6.3101126303198125
31
0
0
ARC
5
357
100
AcDbEntity
8
0
100
AcDbCircle
10
27.482106254475653
20
6.156389559864774
30
0
40
0.1693477741451434
210
0
220
0
230
1
100
AcDbArc
50
-34.684096839069149
51
114.80566575481782
0
LINE
5
358
100
AcDbEntity
8
0
100
AcDbLine
10
27.621361271240801
20
6.0600219879660697
30
0
11
27.851418362722246
21
6.0886686245199995
31
0
0
ENDSEC
0
SECTION
2
OBJECTS
0
DICTIONARY
5
C
100
AcDbDictionary
3
ACAD_GROUP
350
D
3
ACAD_MLINESTYLE
350
17
0
DICTIONARY
5
D
100
AcDbDictionary
0
DICTIONARY
5
1A
330
C
100
AcDbDictionary
0
DICTIONARY
5
17
100
AcDbDictionary
0
ENDSEC
0
EOF
